<svg xmlns="http://www.w3.org/2000/svg" style="display: none;">
    <symbol id="pacman-right" viewBox="0 0 16 16">
        <rect x="1" y="5" width="1" height="5" fill="#ffff07"></rect>
        <rect x="2" y="3" width="3" height="9" fill="#ffff07"></rect>
        <rect x="5" y="1" width="5" height="5" fill="#ffff07"></rect>
        <rect x="5" y="9" width="5" height="5" fill="#ffff07"></rect>
        <rect x="3" y="2" width="2" height="1" fill="#ffff07"></rect>
        <rect x="3" y="12" width="2" height="1" fill="#ffff07"></rect>
        <rect x="5" y="6" width="3" height="1" fill="#ffff07"></rect>
        <rect x="5" y="8" width="3" height="1" fill="#ffff07"></rect>
        <rect x="10" y="2" width="1" height="4" fill="#ffff07"></rect>
        <rect x="10" y="9" width="1" height="4" fill="#ffff07"></rect>
        <rect x="11" y="2" width="1" height="3" fill="#ffff07"></rect>
        <rect x="11" y="10" width="1" height="3" fill="#ffff07"></rect>
        <rect x="12" y="3" width="1" height="2" fill="#ffff07"></rect>
        <rect x="12" y="10" width="1" height="2" fill="#ffff07"></rect>
    </symbol>
    <symbol id="pacman-chomp-right" viewBox="0 0 16 16">
        <rect x="2" y="3" width="3" height="9" fill="#ffff07"></rect>
        <rect x="1" y="5" width="1" height="5" fill="#ffff07"></rect>
        <rect x="5" y="1" width="4" height="3" fill="#ffff07"></rect>
        <rect x="5" y="11" width="4" height="3" fill="#ffff07"></rect>
        <rect x="3" y="2" width="2" height="1" fill="#ffff07"></rect>
        <rect x="3" y="12" width="2" height="1" fill="#ffff07"></rect>
        <rect x="9" y="1" width="1" height="2" fill="#ffff07"></rect>
        <rect x="9" y="12" width="1" height="2" fill="#ffff07"></rect>
        <rect x="5" y="4" width="3" height="1" fill="#ffff07"></rect>
        <rect x="5" y="5" width="2" height="1" fill="#ffff07"></rect>
        <rect x="5" y="6" width="1" height="1" fill="#ffff07"></rect>
        <rect x="5" y="8" width="1" height="1" fill="#ffff07"></rect>
        <rect x="5" y="9" width="2" height="1" fill="#ffff07"></rect>
        <rect x="5" y="10" width="3" height="1" fill="#ffff07"></rect>
    </symbol>
</svg>